<svg width="70" height="68" viewBox="0 0 70 68" fill="none" xmlns="http://www.w3.org/2000/svg">
<g clip-path="url(#clip0_223_44)">
<path d="M17.9785 3.34562C16.9395 3.58271 15.7773 4.07006 14.5469 4.82085C14 5.13697 13.4531 5.4004 13.3164 5.4004C12.8379 5.4004 11.6484 6.03264 11.1016 6.57268C10.8008 6.87563 10.4043 7.4025 10.2402 7.74496C9.91211 8.36403 9.91211 8.40355 9.87109 13.5142C9.83008 19.2965 9.88477 19.8497 10.7188 21.5094C11.3613 22.787 12.2773 23.8671 13.3438 24.6047C14.1777 25.1975 14.2188 25.2501 14.2188 25.7638V26.317L12.5508 26.3697C11.1426 26.4224 10.7598 26.4751 10.1855 26.7517C8.88672 27.3444 7.88867 28.6353 7.69727 29.9656L7.61523 30.5583H4.2793C0.792969 30.5583 0.300781 30.6242 0.0820312 31.1511C0.0410156 31.2696 0 32.4682 0 33.7986C0 36.209 0 36.2353 0.341797 36.5514C0.519531 36.7359 0.765625 36.8807 0.888672 36.8807C1.06641 36.8807 1.09375 37.974 1.09375 47.1942C1.09375 53.9381 1.14844 57.7842 1.24414 58.2979C1.62695 60.3395 3.19922 62.4075 5.14062 63.3822C7.02734 64.3437 4.88086 64.2779 35 64.2779C65.1191 64.2779 62.9727 64.3437 64.8594 63.3822C66.7871 62.4206 68.373 60.3263 68.7559 58.2979C68.8516 57.7842 68.9062 53.9381 68.9062 47.1942C68.9062 37.974 68.9336 36.8807 69.1113 36.8807C69.2344 36.8807 69.4805 36.7359 69.6582 36.5514C70 36.2353 70 36.209 70 33.7591C69.9863 32.0204 69.9453 31.2169 69.8223 31.072C69.4258 30.5847 69.166 30.5583 63.9434 30.5583H58.8301L58.666 30.0446C58.4473 29.307 57.3125 28.1611 56.4375 27.7791L55.7129 27.463H49.2188H42.7246L41.959 27.8054C41.002 28.2401 40.25 28.9514 39.8262 29.8602L39.498 30.5583H34.5215H29.5586L29.4629 29.9393C29.3535 29.2412 28.9023 28.2928 28.3828 27.7001C28.1914 27.4893 27.6582 27.1073 27.1797 26.8703C26.3594 26.4488 26.2363 26.4224 24.6504 26.3697L22.9688 26.317V25.7638C22.9688 25.2501 23.0098 25.1975 23.8438 24.6047C24.8965 23.8803 25.8262 22.787 26.4414 21.5489L26.9062 20.6532L27.125 21.5752C27.248 22.0889 27.3438 22.7475 27.3438 23.0505C27.3438 24.1042 28.4648 24.6179 29.2031 23.9066L29.5449 23.5773L29.5039 17.2154L29.4492 10.8667L29.0801 9.81292C28.5469 8.285 27.8359 7.19175 26.5918 5.99313C25.334 4.78133 24.1719 4.08323 22.627 3.60905C21.2598 3.18756 19.1953 3.08218 17.9785 3.34562ZM22.0527 5.65067C24.3633 6.4278 26.1133 8.1006 26.9473 10.3134C27.2207 11.0511 27.2617 11.433 27.3164 14.1464L27.3711 17.1759L26.4141 16.3197C25.2246 15.266 24.0352 14.5811 22.627 14.1464C21.6836 13.8435 21.1914 13.7908 19.1133 13.7117C16.4883 13.6195 16.3242 13.58 15.668 12.7239C15.4082 12.3946 15.3809 12.1443 15.3398 9.61534L15.2988 6.84929L16.0234 6.41462C16.666 6.01947 17.8418 5.54529 18.6621 5.34771C19.2363 5.20283 21.2871 5.38723 22.0527 5.65067ZM13.0977 10.05C13.0566 12.3287 13.0566 12.3419 12.6738 12.8161C12.4688 13.0795 12.2363 13.3034 12.1543 13.3034C11.9766 13.3034 11.9902 9.19385 12.1816 8.73284C12.332 8.33769 12.8242 7.77131 13.0156 7.77131C13.084 7.77131 13.125 8.77235 13.0977 10.05ZM14.5879 14.6996C14.793 14.8972 15.3125 15.2001 15.7227 15.3845C16.4062 15.7007 16.6934 15.7402 18.8672 15.8192C21.5879 15.9246 22.3809 16.1222 23.748 16.9915C25.293 17.9794 25.2246 17.8872 25.0332 18.9409C24.7871 20.2976 24.2129 21.3513 23.1875 22.3392C20.6445 24.7891 16.7891 24.8418 14.1367 22.4841C12.6328 21.1406 12.0312 19.6258 12.0312 17.1759V15.6875L12.7559 15.3714C13.1387 15.187 13.6172 14.8972 13.8086 14.7128C14 14.5284 14.1641 14.3703 14.1777 14.3703C14.1914 14.3572 14.3828 14.5152 14.5879 14.6996ZM18.5938 26.2775C19.1543 26.2775 19.8789 26.238 20.207 26.1722L20.7812 26.08V26.9361C20.7812 27.6869 20.8223 27.845 21.123 28.1216C21.4375 28.4377 21.5059 28.4509 23.5293 28.4509C25.1562 28.4509 25.6895 28.4904 26.0723 28.6616C26.6328 28.925 27.1797 29.5705 27.2891 30.1368L27.3848 30.5583H18.5938H9.81641L9.89844 30.1237C9.99414 29.6231 10.3223 29.1621 10.8555 28.7933C11.1836 28.5431 11.4844 28.5035 13.5625 28.4509C15.8047 28.385 15.9004 28.3718 16.1465 28.0689C16.3379 27.845 16.4062 27.5552 16.4062 26.9229V26.08L16.9941 26.1722C17.3086 26.238 18.0332 26.2775 18.5938 26.2775ZM50.5723 30.1895C50.3398 30.8218 50.3262 31.4277 50.3125 36.5119V42.1494H45.9375H41.5488L41.5898 36.5119L41.6309 30.8613L42 30.4003C42.6836 29.5441 42.834 29.5046 47.0449 29.5046H50.8184L50.5723 30.1895ZM55.4668 29.7022C56.0137 29.9261 56.4648 30.2686 56.4648 30.453C56.4648 30.5056 55.6172 30.5583 54.5918 30.5583H52.7324L53.0605 30.2159C53.7168 29.5309 54.5781 29.3465 55.4668 29.7022ZM39.375 33.7195V34.7733H20.7812H2.1875V33.7195V32.6658H20.7812H39.375V33.7195ZM67.8125 33.7195V34.7733H60.1562H52.5V33.7195V32.6658H60.1562H67.8125V33.7195ZM12.0312 41.6225V46.3644H7.65625H3.28125V41.6225V36.8807H7.65625H12.0312V41.6225ZM22.9688 41.6225V46.3644H18.5938H14.2188V41.6225V36.8807H18.5938H22.9688V41.6225ZM33.9062 41.6225V46.3644H29.5312H25.1562V41.6225V36.8807H29.5312H33.9062V41.6225ZM39.375 40.2395V43.6115L39.7168 43.9276C40.0449 44.2569 40.0859 44.2569 42.4512 44.2569H44.8438V45.3106V46.3644H40.4688H36.0938V41.6225V36.8807H37.7344H39.375V40.2395ZM55.7812 41.6225V46.3644H51.4062H47.0312V45.3106V44.2569H49.4238C51.7891 44.2569 51.8301 44.2569 52.1582 43.9276L52.5 43.6115V40.2395V36.8807H54.1406H55.7812V41.6225ZM66.7188 41.6225V46.3644H62.3438H57.9688V41.6225V36.8807H62.3438H66.7188V41.6225ZM66.7188 49.5256V50.5793H35H3.28125V49.5256V48.4718H35H66.7188V49.5256ZM12.0312 57.4286V62.1704H9.98047C8.27148 62.1704 7.79297 62.1309 7.06836 61.8938C5.55078 61.4196 4.22461 60.2078 3.62305 58.7853C3.4043 58.2584 3.36328 57.7184 3.30859 55.4133L3.25391 52.6868H7.64258H12.0312V57.4286ZM22.9688 57.4286V62.1704H18.5938H14.2188V57.4286V52.6868H18.5938H22.9688V57.4286ZM33.9062 57.4286V62.1704H29.5312H25.1562V57.4286V52.6868H29.5312H33.9062V57.4286ZM44.8438 57.4286V62.1704H40.4688H36.0938V57.4286V52.6868H40.4688H44.8438V57.4286ZM55.7812 57.4286V62.1704H51.4062H47.0312V57.4286V52.6868H51.4062H55.7812V57.4286ZM66.6914 55.4133L66.6504 58.153L66.2266 59.0223C65.7207 60.0497 65.0371 60.8137 64.1484 61.3537C63.082 62.0123 62.2617 62.1704 59.9922 62.1704H57.9688V57.4286V52.6868H62.3574H66.7461L66.6914 55.4133Z" fill="white"/>
<path d="M41.0156 10.7217C40.209 11.1432 39.6484 12.9346 39.9082 14.2518C39.9765 14.6469 40.2637 15.5426 40.5508 16.2143C41.1523 17.7159 41.2207 18.5589 40.7695 19.257C40.373 19.8629 40.3867 20.3503 40.8105 20.7454C41.4258 21.3513 42.164 21.1406 42.7246 20.2317C43.5039 18.9541 43.4492 17.4788 42.5605 15.4109C41.959 14.0147 41.8906 13.0795 42.3554 12.3682C42.5195 12.1048 42.6562 11.8018 42.6562 11.6833C42.6562 11.3013 42.3554 10.8271 42.0137 10.6822C41.6035 10.4978 41.4394 10.511 41.0156 10.7217Z" fill="white"/>
<path d="M48.6445 10.7349C48.4395 10.8535 48.1387 11.2223 47.9473 11.6174C47.2637 12.9873 47.332 14.2781 48.207 16.2275C48.8633 17.7027 48.918 18.335 48.4805 19.1648C48.043 19.9946 48.0293 20.3371 48.4668 20.7454C49.1641 21.4303 50.0254 21.0483 50.627 19.7839C50.8457 19.3097 50.9141 18.9145 50.9141 18.1111C50.9141 17.1759 50.8457 16.8993 50.3262 15.6743C49.6152 14.0015 49.5332 13.119 50.0117 12.3682C50.4902 11.6174 50.3672 11.051 49.6699 10.6954C49.2871 10.4978 49.0957 10.4978 48.6445 10.7349Z" fill="white"/>
<path d="M56.3965 10.6823C55.959 10.893 55.5352 11.5779 55.2891 12.5C54.9883 13.6722 55.125 14.5547 55.9317 16.3329C56.5059 17.6369 56.5606 18.3614 56.1367 19.1648C55.6992 19.9946 55.6856 20.3371 56.1231 20.7454C57.1758 21.7728 58.5703 20.3108 58.5703 18.177C58.5703 17.1232 58.4473 16.6754 57.791 15.2133C57.2578 14.041 57.2168 13.0532 57.668 12.3682C58.1465 11.6175 58.0235 11.0511 57.3262 10.6954C56.9707 10.511 56.7656 10.511 56.3965 10.6823Z" fill="white"/>
</g>
<defs>
<clipPath id="clip0_223_44">
<rect width="70" height="67.439" fill="white"/>
</clipPath>
</defs>
</svg>
