<svg width="66" height="68" viewBox="0 0 66 68" fill="none" xmlns="http://www.w3.org/2000/svg">
<g clip-path="url(#clip0_223_33)">
<path d="M25.8586 0.933983C24.4664 1.10497 22.1074 1.63107 20.9086 2.05196C16.8094 3.44614 13.9605 6.39235 12.9293 10.2724C12.6457 11.3641 12.6328 14.0867 12.9293 15.1257L13.1226 15.836L12.7488 16.3752C11.9238 17.5458 11.5758 19.1899 11.8594 20.5841C12.1816 22.1624 13.3547 23.8854 14.6308 24.6483C15.1078 24.9376 15.1851 25.056 15.3269 25.7399C15.8683 28.239 17.3121 30.6196 19.439 32.4873C20.0062 33.0002 20.1222 33.1712 20.1867 33.6842C20.264 34.2892 20.032 36.1174 19.8644 36.2226C19.8258 36.2489 19.4133 35.9596 18.975 35.565L18.1629 34.8548H17.2347C11.1761 34.8679 5.42693 38.4454 2.95193 43.7328C1.21169 47.4287 0.270679 53.5316 0.0386475 62.5543L-0.0386963 65.8688L0.29646 66.2108L0.631616 66.5527H27.1347H53.6379L53.9472 66.2239C54.2695 65.9083 54.2695 65.8819 54.2695 63.4882C54.2695 57.53 53.5734 50.9142 52.5422 46.9947C51.7558 44.0616 50.7117 42.0756 48.9199 40.1421C45.8004 36.7619 41.9332 34.9863 37.5761 34.9337L36.0164 34.9205L34.7402 36.078L33.464 37.2354L33.232 36.6435C32.9097 35.8018 32.7035 34.3944 32.7937 33.7105C32.8582 33.2107 32.9742 33.0265 33.4769 32.5662C35.5008 30.7906 37.1636 28.0943 37.7695 25.6216C37.8984 25.0955 38.0144 24.9508 38.6203 24.5431C40.2832 23.4119 41.4176 20.8077 41.1984 18.6375C41.1082 17.6773 40.5152 16.3358 39.9738 15.8754L39.6 15.5598L39.9867 14.4549C41.2113 10.9037 40.425 8.65461 37.1508 6.45811C35.9777 5.66895 35.9133 5.59003 34.998 3.81442C34.2246 2.31501 33.5929 1.77575 32.0461 1.23649C31.1051 0.907677 30.7957 0.868217 28.9394 0.841911C27.8051 0.828758 26.4129 0.868217 25.8586 0.933983ZM31.1953 3.2357C32.3683 3.57767 32.5746 3.77496 33.2578 5.12969C34.0828 6.76062 34.4566 7.19466 35.8359 8.1548C38.1562 9.78574 38.6847 10.7722 38.2722 12.7582C38.1176 13.5079 37.9886 13.5737 37.7179 13.0476C37.4215 12.4557 35.9906 10.5354 35.2687 9.74628C34.4308 8.83875 33.2449 7.94436 32.7293 7.82599C32.1621 7.69446 31.6722 7.95752 31.1953 8.64145C30.8988 9.04919 30.5636 9.32539 30.1125 9.53584C29.4937 9.8252 29.2359 9.83835 25.5234 9.91726C18.859 10.0488 17.5054 10.3118 15.4816 11.8639L14.7855 12.4031L14.8629 11.6271C15.1594 8.83875 17.3636 5.98461 20.2511 4.62988C23.2676 3.22255 28.7332 2.5386 31.1953 3.2357ZM33.9668 11.4824C34.7789 12.4163 35.939 14.1656 36.6609 15.5466C37.3054 16.7567 37.4086 16.8882 38.0531 17.217C38.2851 17.3354 38.6074 17.6379 38.775 17.8878C39.0457 18.2955 39.0715 18.4665 39.0328 19.4004C38.9941 20.0843 38.8781 20.6762 38.7105 21.0707C38.3238 21.9388 37.4988 22.8069 36.8672 23.0042C36.2613 23.1883 36.2226 23.2541 35.5265 25.5163C34.9594 27.3446 34.2117 28.6993 33.0902 29.9357C31.1051 32.119 28.7074 33.1581 26.0519 32.9739C21.8367 32.6977 18.2531 29.3832 17.3379 24.9245C17.0543 23.5171 16.9511 23.3462 16.2422 23.0436C14.8886 22.4649 14.0379 21.2286 13.9476 19.716C13.8832 18.6375 14.141 17.9799 14.9918 16.9934C15.4558 16.4673 15.5976 16.1779 15.675 15.6913C15.8426 14.4812 16.5258 13.5869 17.7246 12.9818C18.975 12.3505 21.2437 12.1138 26.0648 12.1006C27.7922 12.1006 29.4164 12.0348 29.8031 11.9559C30.641 11.7718 31.814 11.1536 32.291 10.6538L32.6519 10.2724L33.0129 10.5354C33.2062 10.6801 33.6445 11.101 33.9668 11.4824ZM23.5254 34.7101C25.3945 35.302 27.8437 35.3151 29.6613 34.7232C30.1125 34.5786 30.525 34.4602 30.5894 34.4602C30.641 34.4602 30.6797 34.6575 30.6797 34.8942C30.6797 35.4992 31.1051 37.1302 31.4918 38.0246L31.814 38.7611L29.4293 40.9181C28.1144 42.1019 27.0058 43.0752 26.9414 43.0752C26.8769 43.0752 25.6394 41.9441 24.1957 40.5499L21.5531 38.0246L21.8754 36.9986C22.0429 36.4331 22.2234 35.6045 22.2621 35.1441C22.3136 34.5654 22.391 34.3287 22.4941 34.3813C22.5844 34.4076 23.0484 34.5654 23.5254 34.7101ZM21.8496 41.2996C24.2601 43.6276 26.3742 45.5742 26.5547 45.6531C26.7222 45.732 26.9929 45.7583 27.1476 45.7189C27.3797 45.6531 30.4347 42.9437 35.8617 37.9719C36.6351 37.2749 36.9187 37.0907 37.2539 37.0907C37.5761 37.0907 37.6535 37.1302 37.589 37.3012C37.5504 37.4195 36.2226 39.6949 34.6629 42.3649L31.8011 47.2183H26.9414C22.4683 47.2183 22.0687 47.2051 21.8883 46.9815C21.6691 46.7185 16.1133 37.288 16.1133 37.1696C16.1133 37.1302 16.4226 37.0907 16.7965 37.0907H17.4668L21.8496 41.2996ZM41.2758 37.6957C43.4027 38.3928 45.1429 39.4056 46.7156 40.9181C49.2808 43.3514 50.4926 46.1924 51.2918 51.5981C51.7558 54.689 52.207 60.6603 52.207 63.7512V64.4483H48.6621H45.1301L45.0914 58.4638L45.0527 52.4925L44.7691 52.19C44.3437 51.756 43.6218 51.7954 43.2351 52.2689L42.9258 52.624V58.5427V64.4483H27.5859H12.2461V58.5427V52.624L11.9367 52.2689C11.55 51.7954 10.8281 51.756 10.4027 52.19L10.1191 52.4925L10.0804 58.4638L10.0418 64.4483H6.12302H2.19138V62.5017C2.19138 55.978 3.22263 48.5072 4.57615 45.3375C6.00701 41.9572 8.66248 39.3793 12.1172 38.0246C13.9219 37.3143 13.316 36.7093 16.964 42.9042L20.1738 48.3363L20.2383 55.1362L20.3027 61.923L20.6121 62.265L20.9215 62.6069H26.8254C30.0738 62.6069 32.8195 62.5675 32.9355 62.528C33.4898 62.3044 33.5156 62.0545 33.5156 55.1099V48.5072L36.6996 43.1015C39.7676 37.8667 40.0769 37.3538 40.1672 37.3538C40.1929 37.3538 40.6828 37.5116 41.2758 37.6957ZM31.3242 54.9126V60.5025H26.8769H22.4297V54.9126V49.3227H26.8769H31.3242V54.9126Z" fill="white"/>
<path d="M24.3503 50.809C23.7831 51.2562 23.7445 51.9796 24.2601 52.4794C24.5179 52.7293 24.7113 52.7424 26.8898 52.7424C28.9909 52.7424 29.2616 52.7161 29.5323 52.4925C29.9577 52.1374 29.9577 51.243 29.5323 50.8879C29.2616 50.6643 29.0038 50.638 26.8898 50.638C25.2655 50.6512 24.4921 50.6906 24.3503 50.809Z" fill="white"/>
<path d="M24.2859 54.1103C23.8218 54.5049 23.7831 55.2414 24.2085 55.6755C24.4921 55.9517 24.5952 55.9648 26.8898 55.9648H29.2874L29.5968 55.5966C30.0093 55.0968 29.9964 54.6496 29.5324 54.1761L29.1585 53.7947H26.8898C24.6984 53.7947 24.621 53.8078 24.2859 54.1103Z" fill="white"/>
<path d="M24.389 57.1749C24.1183 57.2801 23.8347 57.9772 23.9249 58.3323C23.9636 58.5165 24.157 58.7795 24.3245 58.9242C24.6339 59.161 24.8531 59.1873 26.9284 59.1873C29.3003 59.1741 29.455 59.1478 29.7515 58.5691C29.9835 58.1219 29.932 57.7536 29.5839 57.4116C29.2745 57.0828 29.2488 57.0828 26.9156 57.096C25.6136 57.096 24.4792 57.1354 24.389 57.1749Z" fill="white"/>
<path d="M47.6051 2.55175L47.2441 2.86741V18.7296C47.2441 34.4207 47.2441 34.5917 47.502 34.8416C47.6437 34.9863 47.9402 35.1441 48.1723 35.1967C48.5203 35.2625 48.6492 35.2099 48.9844 34.8811L49.3711 34.4865V27.3051V20.1237H57.4148H65.4715L65.7293 19.7818C66.0773 19.3214 66.0773 18.7953 65.7035 18.4007C65.5488 18.2298 61.8105 15.2441 57.3891 11.7849L49.3711 5.48479V4.24844C49.3711 3.05155 49.3582 2.98578 48.9973 2.61751C48.5332 2.14401 48.0949 2.13086 47.6051 2.55175ZM55.623 13.1265C58.8844 15.6913 61.6043 17.8483 61.6816 17.9009C61.7461 17.9667 59.0648 18.0193 55.5844 18.0193H49.3711V13.1397C49.3711 9.35169 49.4098 8.28632 49.5258 8.36523C49.616 8.41784 52.3488 10.5617 55.623 13.1265Z" fill="white"/>
</g>
<defs>
<clipPath id="clip0_223_33">
<rect width="66" height="67.3418" fill="white"/>
</clipPath>
</defs>
</svg>
