<svg width="30" height="30" viewBox="0 0 30 30" fill="none" xmlns="http://www.w3.org/2000/svg">
<circle cx="15" cy="15" r="15" fill="white"/>
<path d="M15 0C12.0333 0 9.13319 0.879734 6.66645 2.52795C4.19971 4.17618 2.27713 6.51886 1.14181 9.25975C0.00649901 12.0006 -0.290551 15.0166 0.288228 17.9264C0.867006 20.8361 2.29562 23.5088 4.3934 25.6066C6.49119 27.7044 9.16393 29.133 12.0736 29.7118C14.9834 30.2905 17.9994 29.9935 20.7403 28.8582C23.4811 27.7229 25.8238 25.8003 27.472 23.3335C29.1203 20.8668 30 17.9667 30 15C29.9922 11.0241 28.4094 7.21334 25.598 4.40198C22.7867 1.59062 18.9759 0.00777296 15 0ZM15 28.2353C12.3823 28.2353 9.8234 27.459 7.64687 26.0047C5.47034 24.5504 3.77394 22.4834 2.77219 20.0649C1.77044 17.6465 1.50834 14.9853 2.01902 12.4179C2.52971 9.85052 3.79025 7.49222 5.64124 5.64123C7.49223 3.79024 9.85053 2.5297 12.4179 2.01902C14.9853 1.50833 17.6465 1.77043 20.0649 2.77218C22.4834 3.77393 24.5504 5.47033 26.0047 7.64686C27.4591 9.8234 28.2353 12.3823 28.2353 15C28.2314 18.509 26.8357 21.8732 24.3545 24.3545C21.8732 26.8357 18.509 28.2314 15 28.2353ZM17.0588 22.0588C17.0588 22.2928 16.9659 22.5173 16.8004 22.6827C16.6349 22.8482 16.4105 22.9412 16.1765 22.9412H15C14.766 22.9412 14.5416 22.8482 14.3761 22.6827C14.2106 22.5173 14.1177 22.2928 14.1177 22.0588V14.7059H13.8235C13.5895 14.7059 13.3651 14.6129 13.1996 14.4474C13.0341 14.282 12.9412 14.0575 12.9412 13.8235C12.9412 13.5895 13.0341 13.3651 13.1996 13.1996C13.3651 13.0341 13.5895 12.9412 13.8235 12.9412H15C15.234 12.9412 15.4584 13.0341 15.6239 13.1996C15.7894 13.3651 15.8824 13.5895 15.8824 13.8235V21.1765H16.1765C16.4105 21.1765 16.6349 21.2694 16.8004 21.4349C16.9659 21.6004 17.0588 21.8248 17.0588 22.0588ZM13.2353 8.52941C13.2353 8.23855 13.3215 7.95423 13.4831 7.71239C13.6447 7.47056 13.8744 7.28207 14.1431 7.17076C14.4118 7.05946 14.7075 7.03034 14.9928 7.08708C15.278 7.14382 15.5401 7.28388 15.7457 7.48955C15.9514 7.69521 16.0915 7.95725 16.1482 8.24251C16.205 8.52778 16.1758 8.82346 16.0645 9.09218C15.9532 9.36089 15.7647 9.59057 15.5229 9.75216C15.2811 9.91375 14.9967 10 14.7059 10C14.3159 10 13.9418 9.84506 13.666 9.56927C13.3902 9.29348 13.2353 8.91943 13.2353 8.52941Z" fill="#EF9817"/>
</svg>
