<?xml version="1.0" standalone="no"?>
<!DOCTYPE svg PUBLIC "-//W3C//DTD SVG 20010904//EN"
 "http://www.w3.org/TR/2001/REC-SVG-20010904/DTD/svg10.dtd">
<svg version="1.0" xmlns="http://www.w3.org/2000/svg"
 width="1100.000000pt" height="1100.000000pt" viewBox="0 0 1100.000000 1100.000000"
 preserveAspectRatio="xMidYMid meet">

<g transform="translate(0.000000,1100.000000) scale(0.100000,-0.100000)"
fill="#000000" stroke="none">
<path d="M6394 5782 c-38 -25 -39 -91 -1 -117 31 -21 54 -19 82 10 30 29 32
68 5 95 -20 20 -65 26 -86 12z"/>
<path d="M7561 5781 c-76 -9 -81 -20 -81 -165 0 -67 -3 -207 -7 -312 -7 -226
-3 -254 36 -277 25 -15 58 -17 229 -17 186 0 201 1 226 21 47 37 23 118 -36
120 -13 0 -88 1 -168 2 l-145 2 -3 83 c-2 60 1 83 10 87 7 2 72 6 145 9 72 2
140 9 151 15 36 19 42 61 12 91 -18 18 -33 20 -164 20 -168 0 -162 -5 -150
109 l6 68 57 6 c59 6 91 30 91 69 0 66 -61 86 -209 69z"/>
<path d="M8224 5781 c-53 -23 -54 -30 -54 -386 0 -371 1 -375 65 -375 24 0 39
7 54 26 18 23 21 41 21 130 0 118 -10 108 105 104 56 -2 63 -5 96 -41 42 -46
75 -50 109 -14 19 20 22 31 17 63 -6 35 -3 42 29 73 76 72 98 202 50 297 -54
105 -99 124 -311 129 -88 1 -170 -1 -181 -6z m313 -141 c60 -21 82 -113 43
-178 -27 -44 -54 -52 -171 -52 l-99 0 0 113 c0 63 3 117 7 120 10 11 187 8
220 -3z"/>
<path d="M6695 5768 c-46 -25 -57 -67 -31 -116 8 -15 38 -81 67 -147 28 -66
67 -156 86 -200 19 -44 43 -98 52 -120 53 -121 66 -146 87 -166 29 -27 65 -20
91 19 11 15 39 72 62 127 48 111 71 164 108 245 36 80 40 113 14 139 -28 28
-75 27 -98 -2 -10 -13 -43 -83 -73 -155 -30 -72 -58 -132 -62 -132 -9 0 -59
105 -133 280 -80 190 -94 216 -122 229 -28 13 -23 13 -48 -1z"/>
<path d="M7225 5755 c-31 -30 -32 -65 -2 -93 67 -63 159 29 97 96 -27 29 -65
28 -95 -3z"/>
<path d="M7892 5773 c-7 -3 -19 -18 -28 -34 -12 -25 -13 -34 -2 -57 10 -21 21
-28 52 -30 48 -4 76 19 76 64 0 48 -49 77 -98 57z"/>
<path d="M3243 5760 c-127 -8 -118 20 -115 -371 2 -357 5 -377 57 -401 19 -9
29 -7 50 6 38 25 48 60 42 152 -8 110 -2 118 90 112 67 -3 71 -5 110 -46 43
-45 66 -51 101 -26 18 12 22 25 22 69 0 45 4 57 21 67 11 7 32 36 47 63 21 40
26 64 26 125 1 86 -15 128 -66 176 -50 48 -90 64 -175 70 -43 3 -89 6 -103 7
-14 2 -62 0 -107 -3z m254 -151 c39 -14 54 -51 51 -120 -3 -60 -5 -65 -37 -86
-32 -21 -44 -23 -135 -21 l-101 3 0 115 0 115 40 6 c45 7 149 0 182 -12z"/>
<path d="M5024 5760 c-49 -19 -49 -20 -46 -379 l3 -336 25 -25 c23 -23 31 -25
123 -25 114 0 141 14 141 70 0 50 -18 65 -90 73 l-65 7 -3 285 c-3 299 -7 321
-49 332 -10 3 -28 2 -39 -2z"/>
<path d="M5625 5745 l-25 -24 0 -321 c0 -350 4 -383 54 -396 33 -8 64 3 77 28
7 12 11 62 11 112 -2 130 -5 126 86 126 l77 0 36 -40 c42 -46 77 -52 110 -19
18 18 20 29 16 64 -6 37 -3 44 21 62 35 26 71 100 79 161 8 72 -18 153 -67
202 -57 57 -111 70 -297 70 -150 0 -155 -1 -178 -25z m356 -132 c69 -41 57
-177 -18 -208 -32 -14 -168 -19 -205 -9 -16 5 -18 19 -18 113 0 59 3 111 7
114 3 4 51 7 106 7 76 0 106 -4 128 -17z"/>
<path d="M2273 5736 l-28 -24 3 -194 c6 -346 48 -451 212 -527 75 -34 220 -36
292 -4 63 29 124 87 156 147 25 47 27 62 30 201 3 137 2 153 -16 175 -23 28
-73 31 -101 6 -17 -15 -20 -35 -23 -154 -3 -150 -11 -173 -71 -222 -28 -22
-40 -25 -117 -25 -102 0 -133 13 -174 75 l-30 44 -6 236 c-4 129 -10 242 -14
251 -8 17 -47 39 -71 39 -8 0 -27 -11 -42 -24z"/>
<path d="M2815 5735 c-39 -38 -32 -86 17 -111 16 -8 38 -12 48 -9 25 8 60 53
60 77 0 27 -45 68 -75 68 -14 0 -37 -11 -50 -25z"/>
<path d="M4266 5694 c-14 -31 -26 -60 -26 -64 0 -15 -28 -31 -35 -20 -3 5 -15
10 -25 10 -20 0 -62 -69 -185 -305 -80 -153 -123 -232 -142 -262 -8 -12 -13
-32 -11 -45 l3 -23 485 4 c267 1 488 5 493 8 14 8 7 44 -17 81 -13 20 -49 84
-81 142 -115 208 -151 265 -167 268 -11 2 -24 -11 -38 -37 -33 -66 -39 -61
-105 94 -68 158 -93 205 -109 205 -8 0 -26 -25 -40 -56z m102 -163 c37 -84 42
-105 31 -112 -8 -5 -72 -9 -142 -9 -147 0 -153 4 -116 72 37 69 40 71 56 48
24 -35 43 -23 74 46 16 36 35 64 41 62 6 -2 31 -50 56 -107z m226 -177 c36
-65 34 -74 -17 -74 -36 0 -46 4 -57 25 -11 21 -11 29 6 60 10 19 24 35 30 35
7 0 24 -21 38 -46z"/>
<path d="M6382 5547 c-21 -23 -22 -31 -22 -250 0 -246 4 -268 52 -288 25 -10
33 -9 56 8 l27 20 3 248 c2 220 0 250 -14 267 -24 26 -75 23 -102 -5z"/>
<path d="M8659 5146 c-13 -6 -27 -24 -32 -40 -20 -59 54 -107 109 -71 18 12
24 24 24 54 0 21 -6 43 -12 48 -21 17 -66 21 -89 9z"/>
<path d="M5400 5133 c-44 -18 -55 -91 -18 -117 48 -34 108 -7 108 48 0 18 -6
40 -12 49 -15 18 -56 29 -78 20z"/>
<path d="M6077 5122 c-22 -25 -21 -75 1 -95 25 -22 75 -21 95 1 22 25 21 75
-1 95 -25 22 -75 21 -95 -1z"/>
<path d="M3623 5115 c-32 -23 -32 -87 -1 -109 31 -22 64 -20 88 4 23 23 26 68
8 93 -19 25 -69 31 -95 12z"/>
</g>
</svg>
