<?xml version="1.0" encoding="UTF-8"?>
<!DOCTYPE svg PUBLIC "-//W3C//DTD SVG 1.1//EN" "http://www.w3.org/Graphics/SVG/1.1/DTD/svg11.dtd">
<svg xmlns="http://www.w3.org/2000/svg" version="1.1" width="1100px" height="1100px" style="shape-rendering:geometricPrecision; text-rendering:geometricPrecision; image-rendering:optimizeQuality; fill-rule:evenodd; clip-rule:evenodd" xmlns:xlink="http://www.w3.org/1999/xlink">
<g><path style="opacity:1" fill="#fefefe" d="M -0.5,-0.5 C 366.167,-0.5 732.833,-0.5 1099.5,-0.5C 1099.5,366.167 1099.5,732.833 1099.5,1099.5C 732.833,1099.5 366.167,1099.5 -0.5,1099.5C -0.5,732.833 -0.5,366.167 -0.5,-0.5 Z"/></g>
<g><path style="opacity:1" fill="#a0a0a0" d="M 838.5,520.5 C 844.882,519.321 851.216,519.655 857.5,521.5C 852.482,521.387 847.482,521.053 842.5,520.5C 841.167,520.5 839.833,520.5 838.5,520.5 Z"/></g>
<g><path style="opacity:1" fill="#454545" d="M 838.5,520.5 C 839.833,520.5 841.167,520.5 842.5,520.5C 834.988,521.304 827.321,521.97 819.5,522.5C 820.263,521.732 821.263,521.232 822.5,521C 827.823,520.501 833.156,520.334 838.5,520.5 Z"/></g>
<g><path style="opacity:1" fill="#9c9c9c" d="M 591.5,522.5 C 582.114,522.22 572.78,522.553 563.5,523.5C 563.611,522.883 563.944,522.383 564.5,522C 573.676,521.176 582.676,521.343 591.5,522.5 Z"/></g>
<g><path style="opacity:1" fill="#131313" d="M 639.5,520.5 C 646.87,519.395 650.037,522.395 649,529.5C 644.578,536.059 640.245,536.059 636,529.5C 635.502,525.832 636.669,522.832 639.5,520.5 Z"/></g>
<g><path style="opacity:1" fill="#0a0a0a" d="M 792.5,598.5 C 778.784,598.798 765.118,598.465 751.5,597.5C 750.206,596.71 749.039,595.71 748,594.5C 747.333,571.5 747.333,548.5 748,525.5C 748.5,523.667 749.667,522.5 751.5,522C 758.5,521.333 765.5,521.333 772.5,522C 777.028,524.824 777.695,528.49 774.5,533C 770.129,534.772 765.629,535.939 761,536.5C 760.501,542.157 760.334,547.824 760.5,553.5C 770.855,553.168 781.188,553.501 791.5,554.5C 793.031,555.613 794.031,557.113 794.5,559C 793.666,561.848 792,564.182 789.5,566C 779.839,566.5 770.172,566.666 760.5,566.5C 760.5,572.5 760.5,578.5 760.5,584.5C 771.838,584.333 783.172,584.5 794.5,585C 798.292,587.053 799.458,590.219 798,594.5C 796.568,596.439 794.735,597.772 792.5,598.5 Z"/></g>
<g><path style="opacity:1" fill="#080808" d="M 842.5,520.5 C 847.482,521.053 852.482,521.387 857.5,521.5C 874.404,530.419 878.238,543.419 869,560.5C 866.622,562.709 864.455,565.042 862.5,567.5C 864.898,575.599 861.898,579.433 853.5,579C 851.833,576.667 850.167,574.333 848.5,572C 842.509,571.501 836.509,571.334 830.5,571.5C 830.666,578.508 830.5,585.508 830,592.5C 827.774,596.861 824.274,598.361 819.5,597C 818.299,596.097 817.465,594.931 817,593.5C 816.333,570.833 816.333,548.167 817,525.5C 817.698,524.309 818.531,523.309 819.5,522.5C 827.321,521.97 834.988,521.304 842.5,520.5 Z"/></g>
<g><path style="opacity:1" fill="#808080" d="M 505.5,523.5 C 503.435,523.517 501.435,523.85 499.5,524.5C 500.134,523.053 501.301,522.387 503,522.5C 504.07,522.528 504.903,522.861 505.5,523.5 Z"/></g>
<g><path style="opacity:1" fill="#0b0b0b" d="M 591.5,522.5 C 610.155,524.456 618.322,534.789 616,553.5C 614.166,559.142 610.833,563.809 606,567.5C 607.37,572.114 606.537,576.28 603.5,580C 601.167,580.667 598.833,580.667 596.5,580C 594.833,577.667 593.167,575.333 591.5,573C 585.833,572.333 580.167,572.333 574.5,573C 573.685,580.087 573.185,587.253 573,594.5C 570.852,599.534 567.352,600.701 562.5,598C 561.853,596.391 561.02,594.891 560,593.5C 559.333,571.167 559.333,548.833 560,526.5C 561.039,525.29 562.206,524.29 563.5,523.5C 572.78,522.553 582.114,522.22 591.5,522.5 Z"/></g>
<g><path style="opacity:1" fill="#0a0a0a" d="M 697.5,571.5 C 698.053,573.552 699.053,573.885 700.5,572.5C 703.667,564.497 706.834,556.497 710,548.5C 713.439,541.851 718.106,540.851 724,545.5C 724.167,546.333 724.333,547.167 724.5,548C 722.846,554.799 720.513,561.299 717.5,567.5C 715.755,569.033 714.755,571.033 714.5,573.5C 711.297,581.264 707.797,588.93 704,596.5C 699.939,600.737 696.272,600.403 693,595.5C 683.954,574.405 674.621,553.405 665,532.5C 663.667,524.085 667.167,521.085 675.5,523.5C 683.392,539.281 690.725,555.281 697.5,571.5 Z"/></g>
<g><path style="opacity:1" fill="#121212" d="M 719.5,530.5 C 719.971,528.421 720.637,526.421 721.5,524.5C 723.816,521.445 726.816,520.779 730.5,522.5C 733.478,525.33 734.144,528.663 732.5,532.5C 727.334,536.916 723,536.25 719.5,530.5 Z"/></g>
<g><path style="opacity:1" fill="#0c0c0c" d="M 788.5,522.5 C 791.57,522.368 794.57,522.701 797.5,523.5C 799.952,532.219 796.619,535.719 787.5,534C 784.525,529.705 784.858,525.871 788.5,522.5 Z"/></g>
<g><path style="opacity:1" fill="#7f7f7f" d="M 788.5,522.5 C 790.966,521.366 793.633,521.199 796.5,522C 797.056,522.383 797.389,522.883 797.5,523.5C 794.57,522.701 791.57,522.368 788.5,522.5 Z"/></g>
<g><path style="opacity:1" fill="#8b8b8b" d="M 283.5,524.5 C 291.031,522.35 294.364,525.35 293.5,533.5C 293.167,533.5 292.833,533.5 292.5,533.5C 293.167,526.833 290.167,523.833 283.5,524.5 Z"/></g>
<g><path style="opacity:1" fill="#0b0b0b" d="M 505.5,523.5 C 507.371,523.859 508.871,524.859 510,526.5C 510.5,546.164 510.667,565.831 510.5,585.5C 514.182,585.335 517.848,585.501 521.5,586C 527.29,589.532 527.957,593.865 523.5,599C 516.582,600.551 509.582,600.884 502.5,600C 500.242,598.247 498.575,596.081 497.5,593.5C 497.333,571.497 497.5,549.497 498,527.5C 499.039,526.756 499.539,525.756 499.5,524.5C 501.435,523.85 503.435,523.517 505.5,523.5 Z"/></g>
<g><path style="opacity:1" fill="#080808" d="M 238.5,529.5 C 238.556,544.18 239.056,558.847 240,573.5C 240.21,575.058 240.71,576.391 241.5,577.5C 244.781,585.895 250.948,589.561 260,588.5C 267.711,589.062 273.544,586.062 277.5,579.5C 278.29,578.391 278.79,577.058 279,575.5C 279.5,566.84 279.666,558.173 279.5,549.5C 280.167,548.833 280.833,548.167 281.5,547.5C 283.861,547.326 286.194,546.993 288.5,546.5C 289.833,547.167 291.167,547.833 292.5,548.5C 293.473,558.084 293.806,567.75 293.5,577.5C 290.193,590.807 281.86,599.14 268.5,602.5C 261.465,602.674 254.465,602.341 247.5,601.5C 241.531,598.935 236.364,595.268 232,590.5C 229.711,586.327 227.878,581.993 226.5,577.5C 226.678,573.878 226.011,570.544 224.5,567.5C 224.394,554.817 224.227,542.151 224,529.5C 226.245,523.864 230.078,522.364 235.5,525C 237.141,526.129 238.141,527.629 238.5,529.5 Z"/></g>
<g><path style="opacity:1" fill="#0b0b0b" d="M 283.5,524.5 C 290.167,523.833 293.167,526.833 292.5,533.5C 290.575,537.008 287.575,538.341 283.5,537.5C 276.907,533.016 276.907,528.683 283.5,524.5 Z"/></g>
<g><path style="opacity:1" fill="#060606" d="M 358.5,580.5 C 355.465,581.734 352.465,581.734 349.5,580.5C 347.249,578.854 345.582,576.687 344.5,574C 338.843,573.501 333.176,573.334 327.5,573.5C 327.901,581.585 327.401,589.585 326,597.5C 320.208,602.294 316.042,601.294 313.5,594.5C 312.764,572.174 312.431,549.841 312.5,527.5C 313.29,526.206 314.29,525.039 315.5,524C 327.868,523.185 340.201,523.518 352.5,525C 365.245,529.324 370.745,538.157 369,551.5C 368.265,558.376 365.265,564.043 360,568.5C 359.767,572.585 359.267,576.585 358.5,580.5 Z"/></g>
<g><path style="opacity:1" fill="#a0a0a0" d="M 428.5,525.5 C 429.919,524.549 431.585,524.216 433.5,524.5C 433.629,526.216 433.962,527.883 434.5,529.5C 432.896,528.713 432.229,527.38 432.5,525.5C 431.167,525.5 429.833,525.5 428.5,525.5 Z"/></g>
<g><path style="opacity:1" fill="#070707" d="M 428.5,525.5 C 429.833,525.5 431.167,525.5 432.5,525.5C 432.229,527.38 432.896,528.713 434.5,529.5C 437.684,537.239 441.017,544.905 444.5,552.5C 447.033,561.827 449.866,561.827 453,552.5C 454.011,551.663 455.178,551.33 456.5,551.5C 464.527,566.033 473.027,580.366 482,594.5C 482.743,596.441 482.576,598.274 481.5,600C 448.835,600.5 416.168,600.667 383.5,600.5C 383.523,598.073 384.023,595.74 385,593.5C 388.712,588.07 391.879,582.403 394.5,576.5C 396.975,575.313 397.975,573.313 397.5,570.5C 398.983,567.369 400.65,564.369 402.5,561.5C 403.87,559.75 404.87,557.75 405.5,555.5C 408.363,549.095 411.696,543.095 415.5,537.5C 417.908,538.061 420.241,538.561 422.5,539C 424.196,536.413 425.196,533.579 425.5,530.5C 426.687,528.928 427.687,527.261 428.5,525.5 Z"/></g>
<g><path style="opacity:1" fill="#747474" d="M 721.5,524.5 C 720.637,526.421 719.971,528.421 719.5,530.5C 718.903,530.265 718.57,529.765 718.5,529C 718.698,526.815 719.698,525.315 721.5,524.5 Z"/></g>
<g><path style="opacity:1" fill="#8a8a8a" d="M 435.5,544.5 C 433.689,542.615 432.522,540.281 432,537.5C 430.855,536.316 429.688,536.316 428.5,537.5C 428.511,535.314 429.511,534.481 431.5,535C 433.509,537.854 434.842,541.021 435.5,544.5 Z"/></g>
<g><path style="opacity:1" fill="#fafafa" d="M 854.5,556.5 C 846.862,557.313 839.196,557.646 831.5,557.5C 831.5,550.167 831.5,542.833 831.5,535.5C 837.653,534.347 843.986,534.18 850.5,535C 854.438,535.214 857.272,537.047 859,540.5C 859.667,544.167 859.667,547.833 859,551.5C 857.951,553.618 856.451,555.284 854.5,556.5 Z"/></g>
<g><path style="opacity:1" fill="#aeaeae" d="M 425.5,530.5 C 425.196,533.579 424.196,536.413 422.5,539C 420.241,538.561 417.908,538.061 415.5,537.5C 417.372,535.938 419.705,534.938 422.5,534.5C 423.521,533.099 424.521,531.765 425.5,530.5 Z"/></g>
<g><path style="opacity:1" fill="#c5c5c5" d="M 292.5,533.5 C 292.833,533.5 293.167,533.5 293.5,533.5C 294.677,535.103 294.511,536.436 293,537.5C 290.006,538.548 286.84,538.548 283.5,537.5C 287.575,538.341 290.575,537.008 292.5,533.5 Z"/></g>
<g><path style="opacity:1" fill="#f5f5f5" d="M 354.5,546.5 C 354.167,549.833 353.833,553.167 353.5,556.5C 352.014,558.619 350.014,560.119 347.5,561C 340.42,561.795 333.42,561.628 326.5,560.5C 326.201,552.747 326.534,545.08 327.5,537.5C 333.653,536.347 339.986,536.18 346.5,537C 351.216,538.541 353.883,541.708 354.5,546.5 Z"/></g>
<g><path style="opacity:1" fill="#f5f5f5" d="M 435.5,544.5 C 437.065,546.509 438.065,548.843 438.5,551.5C 438.5,553.5 438.5,555.5 438.5,557.5C 429.833,557.5 421.167,557.5 412.5,557.5C 412.5,556.167 412.5,554.833 412.5,553.5C 413.514,551.426 414.514,549.426 415.5,547.5C 418.408,548.264 421.408,548.264 424.5,547.5C 426.897,544.691 428.23,541.358 428.5,537.5C 429.688,536.316 430.855,536.316 432,537.5C 432.522,540.281 433.689,542.615 435.5,544.5 Z"/></g>
<g><path style="opacity:1" fill="#f2f2f2" d="M 573.5,536.5 C 582.377,535.858 591.043,536.692 599.5,539C 604.759,547.726 603.092,554.726 594.5,560C 587.833,560.667 581.167,560.667 574.5,560C 573.518,552.253 573.185,544.42 573.5,536.5 Z"/></g>
<g><path style="opacity:1" fill="#a5a5a5" d="M 428.5,537.5 C 428.23,541.358 426.897,544.691 424.5,547.5C 424.343,546.127 424.51,544.793 425,543.5C 426.082,541.382 427.249,539.382 428.5,537.5 Z"/></g>
<g><path style="opacity:1" fill="#0d0d0d" d="M 638.5,542.5 C 642.603,541.769 646.103,542.769 649,545.5C 649.667,561.833 649.667,578.167 649,594.5C 644.842,599.778 640.509,599.778 636,594.5C 635.333,578.167 635.333,561.833 636,545.5C 637.045,544.627 637.878,543.627 638.5,542.5 Z"/></g>
<g><path style="opacity:1" fill="#aeaeae" d="M 238.5,529.5 C 239.117,529.611 239.617,529.944 240,530.5C 240.284,546.181 240.784,561.848 241.5,577.5C 240.71,576.391 240.21,575.058 240,573.5C 239.056,558.847 238.556,544.18 238.5,529.5 Z"/></g>
<g><path style="opacity:1" fill="#4b4b4b" d="M 288.5,546.5 C 286.194,546.993 283.861,547.326 281.5,547.5C 283.655,545.466 285.988,545.133 288.5,546.5 Z"/></g>
<g><path style="opacity:1" fill="#848484" d="M 424.5,547.5 C 421.408,548.264 418.408,548.264 415.5,547.5C 416.568,543.66 418.235,543.493 420.5,547C 421.793,547.49 423.127,547.657 424.5,547.5 Z"/></g>
<g><path style="opacity:1" fill="#c4c4c4" d="M 831.5,535.5 C 831.5,542.833 831.5,550.167 831.5,557.5C 839.196,557.646 846.862,557.313 854.5,556.5C 854.082,557.222 853.416,557.722 852.5,558C 845.174,558.5 837.841,558.666 830.5,558.5C 830.175,550.648 830.508,542.982 831.5,535.5 Z"/></g>
<g><path style="opacity:1" fill="#c8c8c8" d="M 292.5,548.5 C 293.827,552.951 294.494,557.784 294.5,563C 294.499,568.012 294.166,572.845 293.5,577.5C 293.806,567.75 293.473,558.084 292.5,548.5 Z"/></g>
<g><path style="opacity:1" fill="#585858" d="M 312.5,527.5 C 312.431,549.841 312.764,572.174 313.5,594.5C 312.078,580.526 311.411,566.359 311.5,552C 311.5,543.66 311.834,535.493 312.5,527.5 Z"/></g>
<g><path style="opacity:1" fill="#4c4c4c" d="M 327.5,537.5 C 326.534,545.08 326.201,552.747 326.5,560.5C 325.835,556.849 325.501,553.015 325.5,549C 325.51,544.771 326.177,540.938 327.5,537.5 Z"/></g>
<g><path style="opacity:1" fill="#9b9b9b" d="M 354.5,546.5 C 355.865,549.959 355.531,553.292 353.5,556.5C 353.833,553.167 354.167,549.833 354.5,546.5 Z"/></g>
<g><path style="opacity:1" fill="#a7a7a7" d="M 438.5,551.5 C 440.163,553.438 440.829,555.772 440.5,558.5C 430.5,558.5 420.5,558.5 410.5,558.5C 410.402,556.447 411.069,554.78 412.5,553.5C 412.5,554.833 412.5,556.167 412.5,557.5C 421.167,557.5 429.833,557.5 438.5,557.5C 438.5,555.5 438.5,553.5 438.5,551.5 Z"/></g>
<g><path style="opacity:1" fill="#909090" d="M 456.5,551.5 C 455.178,551.33 454.011,551.663 453,552.5C 449.866,561.827 447.033,561.827 444.5,552.5C 446.176,553.183 446.843,554.517 446.5,556.5C 449.635,556.452 451.302,554.785 451.5,551.5C 453.316,550.265 454.983,550.265 456.5,551.5 Z"/></g>
<g><path style="opacity:1" fill="#8f8f8f" d="M 405.5,555.5 C 404.87,557.75 403.87,559.75 402.5,561.5C 402.386,558.784 403.386,556.784 405.5,555.5 Z"/></g>
<g><path style="opacity:1" fill="#c5c5c5" d="M 279.5,549.5 C 279.666,558.173 279.5,566.84 279,575.5C 278.79,577.058 278.29,578.391 277.5,579.5C 278.036,569.344 278.702,559.344 279.5,549.5 Z"/></g>
<g><path style="opacity:1" fill="#e1e1e1" d="M 459.5,565.5 C 459.703,567.044 460.37,568.378 461.5,569.5C 458.572,570.484 455.572,570.817 452.5,570.5C 449.833,566.288 450.499,562.455 454.5,559C 455.449,558.383 456.282,558.549 457,559.5C 458.122,561.407 458.955,563.407 459.5,565.5 Z"/></g>
<g><path style="opacity:1" fill="#8f8f8f" d="M 499.5,524.5 C 499.539,525.756 499.039,526.756 498,527.5C 497.5,549.497 497.333,571.497 497.5,593.5C 496.337,571.337 496.17,549.004 497,526.5C 497.708,525.619 498.542,524.953 499.5,524.5 Z"/></g>
<g><path style="opacity:1" fill="#8a8a8a" d="M 459.5,565.5 C 461.975,566.687 462.975,568.687 462.5,571.5C 458.958,571.813 455.625,571.479 452.5,570.5C 455.572,570.817 458.572,570.484 461.5,569.5C 460.37,568.378 459.703,567.044 459.5,565.5 Z"/></g>
<g><path style="opacity:1" fill="#848484" d="M 697.5,571.5 C 698.391,572.11 699.391,572.443 700.5,572.5C 699.053,573.885 698.053,573.552 697.5,571.5 Z"/></g>
<g><path style="opacity:1" fill="#aaaaaa" d="M 717.5,567.5 C 717.245,569.967 716.245,571.967 714.5,573.5C 714.755,571.033 715.755,569.033 717.5,567.5 Z"/></g>
<g><path style="opacity:1" fill="#bfbfbf" d="M 224.5,567.5 C 226.011,570.544 226.678,573.878 226.5,577.5C 225.883,577.389 225.383,577.056 225,576.5C 224.502,573.518 224.335,570.518 224.5,567.5 Z"/></g>
<g><path style="opacity:1" fill="#4b4b4b" d="M 397.5,570.5 C 397.975,573.313 396.975,575.313 394.5,576.5C 395.508,574.456 396.508,572.456 397.5,570.5 Z"/></g>
<g><path style="opacity:1" fill="#9f9f9f" d="M 349.5,580.5 C 352.465,581.734 355.465,581.734 358.5,580.5C 358.389,581.117 358.056,581.617 357.5,582C 356.167,582.167 354.833,582.333 353.5,582.5C 351.667,582.415 350.334,581.748 349.5,580.5 Z"/></g>
<g><path style="opacity:1" fill="#151515" d="M 864.5,584.5 C 874.989,582.805 877.989,586.638 873.5,596C 865.171,599.148 861.338,596.315 862,587.5C 863.045,586.627 863.878,585.627 864.5,584.5 Z"/></g>
<g><path style="opacity:1" fill="#131313" d="M 540.5,585.5 C 547.408,586.067 549.908,589.734 548,596.5C 539.278,602.102 535.278,599.768 536,589.5C 536.907,587.391 538.407,586.058 540.5,585.5 Z"/></g>
<g><path style="opacity:1" fill="#0e0e0e" d="M 608.5,585.5 C 618.818,585.325 621.152,589.492 615.5,598C 609.372,600.029 606.038,597.863 605.5,591.5C 605.628,589.045 606.628,587.045 608.5,585.5 Z"/></g>
<g><path style="opacity:1" fill="#141414" d="M 372.5,591.5 C 372.233,593.965 371.566,596.299 370.5,598.5C 366.76,601.408 363.26,601.075 360,597.5C 358.166,588.332 361.666,585.165 370.5,588C 371.823,588.816 372.489,589.983 372.5,591.5 Z"/></g>
<g><path style="opacity:1" fill="#a0a0a0" d="M 372.5,591.5 C 373.598,592.601 373.765,593.934 373,595.5C 372.764,597.119 371.931,598.119 370.5,598.5C 371.566,596.299 372.233,593.965 372.5,591.5 Z"/></g>
<g><path style="opacity:1" fill="#c8c8c8" d="M 751.5,597.5 C 765.118,598.465 778.784,598.798 792.5,598.5C 779.34,599.66 766.006,599.827 752.5,599C 751.944,598.617 751.611,598.117 751.5,597.5 Z"/></g>
<g><path style="opacity:1" fill="#656565" d="M 247.5,601.5 C 254.465,602.341 261.465,602.674 268.5,602.5C 265.686,603.165 262.686,603.498 259.5,603.5C 255.203,603.722 251.203,603.055 247.5,601.5 Z"/></g>
</svg>
