<svg width="40" height="40" viewBox="0 0 40 40" fill="none" xmlns="http://www.w3.org/2000/svg">
<path d="M36.1406 4.95313C35.7938 4.65926 35.3738 4.46486 34.9254 4.39058C34.4769 4.31629 34.0167 4.36491 33.5937 4.53125L4.74997 15.8594C4.24405 16.0521 3.81552 16.4058 3.53037 16.866C3.24521 17.3262 3.11923 17.8674 3.17184 18.4063C3.21878 18.9449 3.43905 19.4538 3.79964 19.8566C4.16023 20.2594 4.6417 20.5345 5.17184 20.6406L12.5 22.0938V31.25C12.4997 31.7453 12.6466 32.2296 12.922 32.6413C13.1974 33.053 13.5889 33.3737 14.0468 33.5625C14.3499 33.6845 14.6733 33.7481 15 33.75C15.3283 33.7512 15.6536 33.6868 15.9568 33.5607C16.2599 33.4346 16.5349 33.2493 16.7656 33.0156L20.8281 28.9687L26.9687 34.375C27.4221 34.7748 28.0049 34.9969 28.6093 35C28.8751 35.0055 29.1398 34.9631 29.3906 34.875C29.8029 34.7445 30.174 34.5087 30.4673 34.1908C30.7605 33.8729 30.9657 33.484 31.0625 33.0625L36.9375 7.40625C37.0402 6.96354 37.0202 6.50122 36.8798 6.06899C36.7394 5.63676 36.4838 5.25098 36.1406 4.95313ZM13.4531 19.7344L5.67184 18.1875L27.4843 9.60938L13.4531 19.7344ZM15 31.25V23.8438L18.9375 27.3125L15 31.25ZM28.625 32.5L15.75 21.1719L34.2968 7.78125L28.625 32.5Z" fill="white"/>
</svg>
