<svg width="80" height="68" viewBox="0 0 80 68" fill="none" xmlns="http://www.w3.org/2000/svg">
<path d="M54.5469 15.783C52.9531 16.0592 51.5625 17.0062 50.8906 18.2557C50.4531 19.1107 50.4531 20.6101 50.8906 21.4518C51.5313 22.6619 53.0156 23.7141 54.3906 23.9114L55.0781 24.0166L54.2188 24.1876C53.1563 24.4112 52.3906 24.7269 51.1406 25.4766C49.3438 26.5551 47.625 26.8576 45.4844 26.4762L44.1719 26.2394L42.1719 23.8193C41.0781 22.4909 40.0625 21.3466 39.9219 21.2677C39.2188 20.9389 38.375 21.6491 38.7188 22.2805C38.8125 22.4646 39.6875 23.5826 40.6719 24.7663L42.4531 26.9234L42.125 27.3048C41.6563 27.8441 41.6719 28.9752 42.1563 29.5539C42.5469 30.0274 44.125 30.7376 45.0313 30.8692C45.5625 30.9349 45.7344 31.0533 46.4063 31.8688C46.8281 32.3817 47.1563 32.8158 47.1406 32.8289C47.1094 32.8552 45.5938 32.3423 43.75 31.6846C40.6094 30.5535 40.3594 30.4877 39.5156 30.5404C37.9688 30.6324 37.4063 31.027 35.0313 33.7759L32.9375 36.1697H21.9375C11.1406 36.1697 10.9375 36.1697 10.625 36.4328C10.2656 36.7353 10.2188 37.3797 10.4844 38.8397C10.75 40.4049 11.5313 42.1279 12.6094 43.5747C12.8906 43.9429 12.8906 43.9561 12.4844 44.2323C12.2656 44.3901 11.8594 44.7716 11.5938 45.0741C11.1563 45.5344 10.9688 45.6396 10.3438 45.7186C9.51563 45.8106 9.0625 46.0868 9.0625 46.4551C9.0625 47.2048 9.9375 47.5073 11.2031 47.2048C11.8906 47.047 12.6563 46.5209 13.5469 45.6002C13.8438 45.2845 14 45.2451 14.7656 45.2451C15.7969 45.2451 16.3594 45.4555 16.9063 46.0605C17.125 46.3104 17.6875 46.6787 18.1406 46.8891C18.875 47.2311 19.1406 47.2837 20.2344 47.2706C21.6719 47.2706 22.8281 46.9023 24 46.0868C24.8906 45.4818 25.6094 45.2451 26.5313 45.2451C27.5938 45.2451 28.1875 45.4423 29.375 46.1789C30.6094 46.9549 31.625 47.2706 32.9688 47.2706C34.2656 47.2706 35.0938 47.0601 36.0469 46.5077C37.7188 45.5081 38.1563 45.324 39.0781 45.2714C40.2344 45.2056 40.8438 45.3766 42.1094 46.1657C43.3906 46.9549 44.4531 47.2837 45.7813 47.2706C47.125 47.2574 48.1406 46.9549 49.375 46.1789C50.5625 45.4423 51.1563 45.2451 52.2188 45.2451C53.1406 45.2451 53.8594 45.4818 54.75 46.0868C57.0625 47.6915 59.9688 47.6915 62.2813 46.0868C63.1719 45.4818 63.8906 45.2451 64.8438 45.2451C65.6094 45.2451 66.5625 45.5344 66.5625 45.758C66.5625 45.8238 66.8594 46.1131 67.2031 46.4156C67.9531 47.047 69.2188 47.4284 70.0938 47.2969C71.2813 47.0996 71.1719 45.7712 69.9531 45.7712C69.25 45.7712 68.75 45.5213 67.8438 44.7321L66.9531 43.9429L67.7031 43.1143C68.7031 42.0226 70.0625 39.6552 70.4688 38.3136C70.8594 36.9983 70.8594 36.6695 70.5 36.3933C70.2344 36.196 69.5 36.1697 63.2188 36.1697H56.2188L57 35.4068C58.5781 33.868 59.5 32.3949 60.0313 30.5272C60.3906 29.2251 60.3594 27.7125 59.9219 26.6735C59.4375 25.5029 57.9219 24.4112 56.4063 24.135L55.8594 24.0298L56.7031 23.8456C60.5156 23.0302 61.6563 18.9923 58.7031 16.7563C57.6094 15.9277 55.9688 15.5463 54.5469 15.783ZM56.2188 17.3877C57.2344 17.5981 58.1875 18.4267 58.4063 19.2685C58.9531 21.4124 56.3594 23.1354 54.0469 22.1489C53.1875 21.7807 52.3438 20.6627 52.3438 19.8604C52.3438 18.8739 53.375 17.7296 54.5156 17.4403C55.4219 17.2035 55.3594 17.2035 56.2188 17.3877ZM56.5313 25.858C58.2031 26.4367 58.8125 28.0413 58.1875 30.251C57.6719 32.1055 56.0469 34.2363 54.1719 35.5121C52.7188 36.4985 52.6406 36.4854 51.0313 34.5914L49.7031 33.0262L51.3281 31.7372C52.7656 30.6193 52.9688 30.3957 52.9688 30.0274C52.9688 29.3566 52.4688 29.1462 51.3906 29.3566C50.9219 29.4487 49.5313 29.5144 48.2813 29.5144C46.4688 29.5276 45.8438 29.475 45.1563 29.2777C44.0469 28.9489 43.5938 28.699 43.5938 28.3965C43.5938 27.9756 44.1406 27.8441 45.0469 28.0282C45.5 28.1334 46.5 28.1992 47.2656 28.1992C48.9531 28.186 50.4219 27.8046 51.7813 27.0154C54.2031 25.6212 55.1875 25.3845 56.5313 25.858ZM48.9844 31.4347C48.8281 31.5794 48.6563 31.6978 48.6094 31.6978C48.5625 31.6978 48.4219 31.5794 48.3125 31.4347C48.1406 31.1848 48.1563 31.1717 48.6875 31.1717C49.25 31.1717 49.2656 31.1717 48.9844 31.4347ZM43.6094 33.3419C45.5156 34.0258 47.2344 34.5914 47.4219 34.5914C47.625 34.5914 47.8594 34.4993 47.9688 34.3941C48.0781 34.2889 48.2188 34.1968 48.2969 34.1968C48.3594 34.1968 48.7813 34.6308 49.2188 35.1438L50.0156 36.1039L46.3281 36.1434C44.3125 36.1565 41.0156 36.1565 39 36.1434L35.3438 36.1039L36.8125 34.3941C38.3438 32.6053 38.9844 32.0924 39.6875 32.0924C39.9219 32.0924 41.6875 32.6579 43.6094 33.3419ZM52.1094 38.5635L52.7969 39.3658L52.125 39.9051C50.9688 40.8126 50.9844 41.5228 52.2188 42.9039L52.8281 43.601L51.7656 43.6799C50.5156 43.7588 49.4688 44.1271 48.3438 44.8636C47.3281 45.5213 46.2656 45.8106 45.2969 45.7054C44.5781 45.6265 44.1094 45.416 42.6094 44.548C40.5156 43.3248 38.0313 43.3642 35.9688 44.64C34.7344 45.4029 34.2813 45.6002 33.4375 45.7054C32.4844 45.8106 31.4219 45.5213 30.4063 44.8636C29.2344 44.1008 28.2344 43.772 26.9375 43.693C25.2969 43.601 24.2813 43.9166 22.4531 45.1135C21.75 45.5607 20.4375 45.8501 19.625 45.7186C19.2344 45.6528 18.8125 45.416 18.2344 44.9294C17.2969 44.1402 16.7188 43.8377 15.7969 43.7193C14.5781 43.5615 13.25 41.9043 12.6563 39.813C12.4844 39.2211 12.3438 38.5109 12.3438 38.2347V37.748H31.875H51.4063L52.1094 38.5635ZM55.5938 37.8796C55.3594 37.9322 55.0156 38.0768 54.8125 38.1952C54.3438 38.4714 54.2969 38.4583 54 38.0768L53.75 37.748L54.875 37.7612C55.7188 37.7612 55.9063 37.8006 55.5938 37.8796ZM68.75 37.7875C68.75 37.9585 67.9375 39.7735 67.6563 40.247C67.1875 41.0362 66.2656 42.141 65.4375 42.917C64.8906 43.43 64.6094 43.5747 63.9063 43.7193C63.4375 43.8114 62.9375 43.9298 62.8125 43.9692C62.6406 44.0219 61.9063 43.259 60.1563 41.2203C57.8125 38.4714 57.2969 37.9848 56.6406 37.8401C56.4688 37.8138 59.125 37.7743 62.5469 37.7612C65.9531 37.7612 68.75 37.7612 68.75 37.7875ZM58.5469 42.0226C59.7344 43.3905 60.7656 44.6006 60.8438 44.6926C61.1875 45.1793 59.2969 45.8764 58.0625 45.7186C57.7031 45.6659 57.2031 45.5213 56.9531 45.3897C56.375 45.1004 53.0469 41.3124 53.2344 41.1546C53.6875 40.7731 56.1875 39.3527 56.2813 39.4316C56.3281 39.4842 57.3594 40.6416 58.5469 42.0226Z" fill="white"/>
<path d="M13 48.2835C12.5781 48.4676 12.0781 48.8359 11.7031 49.2699C11.1562 49.8881 11.0312 49.967 10.3594 50.0591C9.5 50.1643 9.0625 50.4273 9.0625 50.8482C9.0625 51.5059 9.89062 51.7952 11.1094 51.5585C11.9062 51.4006 12.4687 51.0192 13.4687 50.0065C13.8437 49.625 13.9531 49.5856 14.7656 49.5856C15.7969 49.5856 16.3906 49.8092 16.9375 50.4142C17.4375 50.9535 18.5937 51.4927 19.5 51.6111C20.9219 51.7952 22.7031 51.3217 24.0156 50.4142C24.9062 49.8092 25.6094 49.5856 26.625 49.5856C27.6875 49.5856 28.1406 49.7303 29.1406 50.3747C31.5937 51.9662 34.2187 52.032 36.5469 50.5589C37.7344 49.8092 38.3906 49.5856 39.4062 49.5856C40.3906 49.5856 41.3281 49.9144 42.2187 50.572C43.7031 51.6374 46.1406 51.9267 47.9062 51.2428C48.4062 51.0455 49.1719 50.6641 49.6094 50.3747C50.6094 49.7303 51.0625 49.5856 52.125 49.5856C53.1406 49.5856 53.875 49.8223 54.75 50.4273C56.1719 51.4006 57.8281 51.7952 59.4531 51.5453C60.5469 51.3743 61.0312 51.1902 62.1562 50.48C63.25 49.796 63.8906 49.5856 64.875 49.5856C65.8437 49.5987 66.2656 49.7566 66.7812 50.3616C67.3125 50.9666 68.1094 51.3875 69 51.5585C69.8437 51.7163 70.3281 51.6637 70.6875 51.348C71.25 50.8745 70.7812 50.1117 69.9375 50.1117C69.25 50.1117 68.5 49.7434 68.0469 49.191C66.8125 47.6916 63.6719 47.5864 61.4531 48.9805C60.0781 49.8486 59.5781 50.0196 58.5156 50.0196C57.4531 50.0196 56.9531 49.8486 55.5625 48.9805C54.375 48.2308 53.2812 47.9546 51.7344 48.0336C50.4062 48.0993 49.6875 48.3492 48.25 49.2568C47.1562 49.9407 46.125 50.1774 45.0469 49.9802C44.1719 49.8092 43.8906 49.6776 42.9375 49.0463C40.8281 47.6521 37.9219 47.6521 35.8125 49.0463C34.8594 49.6776 34.5781 49.8092 33.7031 49.9802C32.5625 50.1906 31.6094 49.9538 30.2812 49.1252C28.9687 48.3098 28 48.0072 26.6562 48.0072C25.3125 48.0072 24.25 48.3098 23.1719 48.9805C22 49.7171 21.4844 49.9407 20.625 50.0459C19.6875 50.1643 18.7812 49.8486 18.1562 49.191C17.4062 48.415 16.2812 48.0072 14.8594 48.0072C13.9687 48.0072 13.5 48.073 13 48.2835Z" fill="white"/>
</svg>
