<svg width="30" height="30" viewBox="0 0 30 30" fill="none" xmlns="http://www.w3.org/2000/svg">
<g clip-path="url(#clip0_72_135)">
<path d="M26.703 18.4468C26.703 18.4468 29.1285 20.8423 29.7285 21.9508C29.7402 21.9668 29.7493 21.9845 29.7555 22.0033C30 22.4128 30.06 22.7338 29.94 22.9708C29.7375 23.3623 29.052 23.5588 28.8195 23.5753H24.5325C24.234 23.5753 23.613 23.4973 22.857 22.9753C22.2795 22.5718 21.705 21.9073 21.1485 21.2578C20.3175 20.2933 19.599 19.4563 18.8715 19.4563C18.7796 19.4561 18.6884 19.4713 18.6015 19.5013C18.051 19.6753 17.352 20.4598 17.352 22.5493C17.352 23.2033 16.836 23.5753 16.4745 23.5753H14.511C13.842 23.5753 10.359 23.3413 7.27051 20.0848C3.48601 16.0978 0.087013 8.09982 0.054013 8.02932C-0.157487 7.51182 0.286513 7.22982 0.766513 7.22982H5.09551C5.67601 7.22982 5.86501 7.58082 5.99701 7.89582C6.15001 8.25732 6.71701 9.70332 7.64701 11.3278C9.15301 13.9708 10.0785 15.0463 10.818 15.0463C10.9569 15.0467 11.0935 15.0105 11.214 14.9413C12.18 14.4103 12 10.9603 11.955 10.2493C11.955 10.1113 11.9535 8.70882 11.4585 8.03082C11.1045 7.54482 10.5015 7.35582 10.137 7.28682C10.2345 7.14582 10.4415 6.92982 10.707 6.80232C11.3685 6.47232 12.564 6.42432 13.7505 6.42432H14.409C15.696 6.44232 16.029 6.52482 16.497 6.64332C17.439 6.86832 17.457 7.47882 17.3745 9.55782C17.3505 10.1518 17.325 10.8208 17.325 11.6083C17.325 11.7763 17.3175 11.9638 17.3175 12.1543C17.289 13.2208 17.2515 14.4223 18.0045 14.9158C18.1022 14.9767 18.2149 15.0089 18.33 15.0088C18.591 15.0088 19.3725 15.0088 21.492 11.3713C22.422 9.76482 23.142 7.87032 23.1915 7.72782C23.2335 7.64832 23.3595 7.42482 23.5125 7.33482C23.6214 7.27691 23.7433 7.24798 23.8665 7.25082H28.959C29.514 7.25082 29.8905 7.33482 29.964 7.54482C30.087 7.88532 29.94 8.92482 27.615 12.0688C27.2235 12.5923 26.88 13.0453 26.5785 13.4413C24.471 16.2073 24.471 16.3468 26.703 18.4468Z" fill="auto"/>
</g>
<defs>
<clipPath id="clip0_72_135">
<rect width="30" height="30" fill="white"/>
</clipPath>
</defs>
</svg>
